<svg xmlns="http://www.w3.org/2000/svg" viewBox="0 0 264.05 275.8"><defs><style>.cls-1{fill:#4fd0d9;}.cls-2{fill:#131414;stroke:#231f20;stroke-miterlimit:10;stroke-width:1.19px;}</style></defs><g id="Layer_2" data-name="Layer 2"><g id="Layer_1-2" data-name="Layer 1"><path class="cls-1" d="M37.9,60A60,60,0,1,0,155.62,43.59,60.06,60.06,0,0,0,97.9,0,60,60,0,0,0,37.9,60Z"/><path class="cls-2" d="M197.38,29.74V257.83a131.45,131.45,0,0,0,0-228.09Z"/><path class="cls-2" d="M.6,143.79a131.48,131.48,0,0,0,148,130.37V138.25a106.5,106.5,0,0,1-57.72,16.88A107,107,0,0,1,4.59,111.56,130.66,130.66,0,0,0,.6,143.79Z"/></g></g></svg>