<svg xmlns="http://www.w3.org/2000/svg" viewBox="0 0 278.83 392.39"><defs><style>.cls-1{fill:#4fd0d9;}.cls-2{fill:#131414;stroke:#231f20;stroke-miterlimit:10;stroke-width:1.19px;}</style></defs><g id="Layer_2" data-name="Layer 2"><g id="Layer_1-2" data-name="Layer 1"><path class="cls-1" d="M45,60A60,60,0,1,0,162.71,43.59a59.14,59.14,0,0,0-9.26-19A60,60,0,0,0,45,60Z"/><path class="cls-2" d="M204.47,29.74V257.83a131.45,131.45,0,0,0,0-228.09Z"/><path class="cls-2" d="M7.69,143.79a131.48,131.48,0,0,0,148,130.37V138.25A106.5,106.5,0,0,1,98,155.13a107,107,0,0,1-86.26-43.57A130.18,130.18,0,0,0,7.69,143.79Z"/><path class="cls-1" d="M59.92,391.19a4.13,4.13,0,0,1-1.36.93,3.91,3.91,0,0,0,1.44-.94,3.47,3.47,0,0,0,.35-.43Z"/><path class="cls-1" d="M72,372.76a4.22,4.22,0,0,0-6,.08l-4.83,5V363.4a3.4,3.4,0,0,0,.11-1V336.52a31.14,31.14,0,0,0-4-15.65,29.36,29.36,0,0,0-11-11.07,30.79,30.79,0,0,0-15.6-4,30.75,30.75,0,0,0-15.59,4A29.36,29.36,0,0,0,4,320.87a31,31,0,0,0-4,15.65,31.38,31.38,0,0,0,3.91,15.59,29,29,0,0,0,25.84,15,28.53,28.53,0,0,0,13.12-3,27.25,27.25,0,0,0,9.8-8.32v32.29a4.16,4.16,0,0,0,4.3,4.3,4.46,4.46,0,0,0,1.59-.27,4.13,4.13,0,0,0,1.36-.93l.43-.44,11.69-12A4.23,4.23,0,0,0,72,372.76Zm-26.5-18.83a21.39,21.39,0,0,1-14.83,5.51,22.25,22.25,0,0,1-11.4-3,21.35,21.35,0,0,1-8-8.2,25.06,25.06,0,0,1,0-23.48,21.93,21.93,0,0,1,19.45-11.29,21.69,21.69,0,0,1,11.35,3,21.93,21.93,0,0,1,8,8.26,23.67,23.67,0,0,1,2.92,11.74,25.39,25.39,0,0,1-.11,2.75,1.3,1.3,0,0,0-.11.56A22.12,22.12,0,0,1,45.46,353.93Z"/><path class="cls-2" d="M129.28,310.33a29,29,0,0,1,10.87,10.93,30.62,30.62,0,0,1,4,15.43,31,31,0,0,1-3.86,15.38,28.66,28.66,0,0,1-25.49,14.84,28.09,28.09,0,0,1-12.93-3,27,27,0,0,1-9.68-8.21v31.85a4.09,4.09,0,0,1-4.24,4.24,3.94,3.94,0,0,1-3-1.2,4.23,4.23,0,0,1-1.14-3V363.21a3.37,3.37,0,0,1-.11-1V336.69a30.62,30.62,0,0,1,4-15.43,29,29,0,0,1,10.87-10.93,31.78,31.78,0,0,1,30.76,0Zm-4.13,46a20.93,20.93,0,0,0,7.93-8.1,24.7,24.7,0,0,0,0-23.15,21.48,21.48,0,0,0-7.93-8.15,21.71,21.71,0,0,0-11.25-3,21.44,21.44,0,0,0-19.07,11.14,23.28,23.28,0,0,0-2.89,11.58,24.88,24.88,0,0,0,.11,2.72,1.2,1.2,0,0,1,.11.54,21.84,21.84,0,0,0,7.12,13.91,21,21,0,0,0,14.62,5.44A22,22,0,0,0,125.15,356.36Z"/><path class="cls-2" d="M172.1,363a28.21,28.21,0,0,1-10.81-10.81,32.66,32.66,0,0,1,0-31,28.09,28.09,0,0,1,10.81-10.87,30.85,30.85,0,0,1,15.49-3.92A30.52,30.52,0,0,1,203,310.28a28.6,28.6,0,0,1,10.82,10.87,32.48,32.48,0,0,1,0,31A28.21,28.21,0,0,1,203.08,363a32.56,32.56,0,0,1-31,0Zm26.79-6.63a20.68,20.68,0,0,0,7.83-8.1,25.29,25.29,0,0,0,0-23.25,20.68,20.68,0,0,0-7.83-8.1,23.09,23.09,0,0,0-22.55,0,20.93,20.93,0,0,0-7.93,8.1,24.9,24.9,0,0,0,0,23.25,20.93,20.93,0,0,0,7.93,8.1,23.09,23.09,0,0,0,22.55,0Z"/><path class="cls-2" d="M241.93,364.62a25,25,0,0,1-10-6.41,4,4,0,0,1-1.09-2.5,4.13,4.13,0,0,1,1.74-3.26,4.47,4.47,0,0,1,2.71-1,4,4,0,0,1,3.16,1.52,16.65,16.65,0,0,0,6.9,4.68,26.73,26.73,0,0,0,9.51,1.63q7.61,0,11.41-2.61a8.22,8.22,0,0,0,3.91-6.85c0-2.61-1.26-4.78-3.8-6.52s-6.56-3-12.06-3.91q-10.67-1.74-15.93-6T233.13,323a14.19,14.19,0,0,1,6.14-12.28q6.14-4.33,15.38-4.35a29.72,29.72,0,0,1,12.5,2.45,22.08,22.08,0,0,1,8.59,6.79,5,5,0,0,1,.87,2.5,3.33,3.33,0,0,1-1.74,2.94,3.53,3.53,0,0,1-2.07.54A5,5,0,0,1,269,320q-5.33-6.09-14.57-6.09-6,0-9.56,2.45a7.26,7.26,0,0,0-.22,12.39q3.38,2.34,12,3.75,11.63,1.95,16.63,6.36a14,14,0,0,1,5,10.92,14.27,14.27,0,0,1-3,8.91,19.46,19.46,0,0,1-8.32,6.09,31.65,31.65,0,0,1-12.06,2.18A37.2,37.2,0,0,1,241.93,364.62Z"/></g></g></svg>